<svg width="405" height="40" viewBox="0 0 405 40" fill="none" xmlns="http://www.w3.org/2000/svg">
<path d="M16.1872 5.63C20.3859 5.63 24.0049 6.96167 27.0442 9.625L23.1432 13.714C21.9839 12.8367 20.9029 12.21 19.9002 11.834C18.9289 11.4267 17.8009 11.223 16.5162 11.223C14.1036 11.223 12.1766 12.1787 10.7352 14.09C9.29389 15.97 8.57323 18.837 8.57323 22.691C8.57323 26.8583 9.12156 29.8193 10.2182 31.574C11.3149 33.2973 13.0226 34.159 15.3412 34.159C16.9706 34.159 18.4432 33.7987 19.7592 33.078V25.699H15.5292L14.7772 20.247H27.2322V36.368C25.5402 37.4647 23.6759 38.3107 21.6392 38.906C19.6026 39.5013 17.5659 39.799 15.5292 39.799C10.5786 39.799 6.84989 38.3577 4.34323 35.475C1.83656 32.561 0.583227 28.2997 0.583227 22.691C0.583227 19.119 1.25689 16.0483 2.60423 13.479C3.98289 10.9097 5.84723 8.967 8.19723 7.651C10.5786 6.30366 13.2419 5.63 16.1872 5.63ZM53.2952 39H46.8562L46.5272 35.851C44.7099 38.483 42.1875 39.799 38.9602 39.799C36.6729 39.799 34.9339 39.1097 33.7432 37.731C32.5839 36.3523 32.0042 34.4253 32.0042 31.95V14.043H39.4302V31.01C39.4302 32.232 39.6182 33.0937 39.9942 33.595C40.4015 34.065 41.0125 34.3 41.8272 34.3C43.3939 34.3 44.7412 33.3287 45.8692 31.386V14.043H53.2952V39ZM67.9247 13.244C69.7107 13.244 71.387 13.5103 72.9537 14.043C74.5203 14.5757 75.899 15.3277 77.0897 16.299L74.3637 20.482C72.327 19.1973 70.2747 18.555 68.2067 18.555C67.2353 18.555 66.4833 18.7273 65.9507 19.072C65.4493 19.3853 65.1987 19.8397 65.1987 20.435C65.1987 20.905 65.3083 21.2967 65.5277 21.61C65.7783 21.892 66.264 22.1897 66.9847 22.503C67.7053 22.8163 68.8177 23.1923 70.3217 23.631C72.9223 24.383 74.8493 25.37 76.1027 26.592C77.3873 27.7827 78.0297 29.4433 78.0297 31.574C78.0297 33.266 77.544 34.7387 76.5727 35.992C75.6013 37.214 74.2697 38.154 72.5777 38.812C70.8857 39.47 69.0057 39.799 66.9377 39.799C64.8383 39.799 62.88 39.47 61.0627 38.812C59.2767 38.154 57.757 37.2453 56.5037 36.086L60.1227 32.044C62.222 33.6733 64.431 34.488 66.7497 34.488C67.8777 34.488 68.755 34.2843 69.3817 33.877C70.0397 33.4697 70.3687 32.89 70.3687 32.138C70.3687 31.5427 70.2433 31.0727 69.9927 30.728C69.742 30.3833 69.2563 30.07 68.5357 29.788C67.815 29.4747 66.6713 29.0987 65.1047 28.66C62.6293 27.9393 60.7807 26.9367 59.5587 25.652C58.3367 24.3673 57.7257 22.7693 57.7257 20.858C57.7257 19.4167 58.133 18.132 58.9477 17.004C59.7937 15.8447 60.9843 14.936 62.5197 14.278C64.0863 13.5887 65.888 13.244 67.9247 13.244ZM97.5064 37.825C96.5977 38.4517 95.5324 38.9373 94.3104 39.282C93.1197 39.6267 91.9291 39.799 90.7384 39.799C85.2864 39.7677 82.5604 36.7597 82.5604 30.775V19.213H79.0354V14.043H82.5604V8.638L89.9864 7.792V14.043H95.7204L94.9214 19.213H89.9864V30.681C89.9864 31.8403 90.1744 32.6707 90.5504 33.172C90.9264 33.6733 91.5217 33.924 92.3364 33.924C93.1824 33.924 94.0754 33.6577 95.0154 33.125L97.5064 37.825ZM119.269 31.762C119.269 32.702 119.394 33.3913 119.645 33.83C119.927 34.2687 120.365 34.5977 120.961 34.817L119.41 39.658C117.874 39.5327 116.621 39.2037 115.65 38.671C114.678 38.107 113.926 37.2297 113.394 36.039C111.764 38.5457 109.258 39.799 105.874 39.799C103.398 39.799 101.424 39.0783 99.9515 37.637C98.4788 36.1957 97.7425 34.3157 97.7425 31.997C97.7425 29.271 98.7452 27.1873 100.751 25.746C102.756 24.3047 105.654 23.584 109.446 23.584H111.984V22.503C111.984 21.0303 111.67 20.0277 111.044 19.495C110.417 18.931 109.32 18.649 107.754 18.649C106.939 18.649 105.952 18.7743 104.793 19.025C103.633 19.2443 102.443 19.5577 101.221 19.965L99.5285 15.077C101.095 14.4817 102.693 14.0273 104.323 13.714C105.983 13.4007 107.519 13.244 108.929 13.244C112.501 13.244 115.117 13.9803 116.778 15.453C118.438 16.9257 119.269 19.1347 119.269 22.08V31.762ZM108.036 34.488C109.728 34.488 111.044 33.689 111.984 32.091V27.673H110.151C108.459 27.673 107.19 27.9707 106.344 28.566C105.529 29.1613 105.122 30.0857 105.122 31.339C105.122 32.3417 105.372 33.125 105.874 33.689C106.406 34.2217 107.127 34.488 108.036 34.488ZM145.974 14.043L138.125 39H129.336L121.299 14.043H129.383L133.801 33.36L138.407 14.043H145.974ZM159.035 13.244C162.857 13.244 165.85 14.419 168.012 16.769C170.174 19.0877 171.255 22.3463 171.255 26.545C171.255 29.2083 170.753 31.5427 169.751 33.548C168.779 35.522 167.369 37.0573 165.521 38.154C163.703 39.2507 161.541 39.799 159.035 39.799C155.243 39.799 152.251 38.6397 150.058 36.321C147.896 33.971 146.815 30.6967 146.815 26.498C146.815 23.8347 147.3 21.516 148.272 19.542C149.274 17.5367 150.684 15.9857 152.502 14.889C154.35 13.7923 156.528 13.244 159.035 13.244ZM159.035 18.696C157.531 18.696 156.403 19.3383 155.651 20.623C154.899 21.8763 154.523 23.8347 154.523 26.498C154.523 29.224 154.883 31.2137 155.604 32.467C156.356 33.7203 157.499 34.347 159.035 34.347C160.539 34.347 161.667 33.7203 162.419 32.467C163.171 31.1823 163.547 29.2083 163.547 26.545C163.547 23.819 163.171 21.8293 162.419 20.576C161.698 19.3227 160.57 18.696 159.035 18.696ZM212.158 6.429L201.724 26.78V39H194.016V26.827L183.582 6.429H191.995L198.011 20.764L204.027 6.429H212.158ZM222.42 13.244C226.243 13.244 229.235 14.419 231.397 16.769C233.559 19.0877 234.64 22.3463 234.64 26.545C234.64 29.2083 234.139 31.5427 233.136 33.548C232.165 35.522 230.755 37.0573 228.906 38.154C227.089 39.2507 224.927 39.799 222.42 39.799C218.629 39.799 215.637 38.6397 213.443 36.321C211.281 33.971 210.2 30.6967 210.2 26.498C210.2 23.8347 210.686 21.516 211.657 19.542C212.66 17.5367 214.07 15.9857 215.887 14.889C217.736 13.7923 219.914 13.244 222.42 13.244ZM222.42 18.696C220.916 18.696 219.788 19.3383 219.036 20.623C218.284 21.8763 217.908 23.8347 217.908 26.498C217.908 29.224 218.269 31.2137 218.989 32.467C219.741 33.7203 220.885 34.347 222.42 34.347C223.924 34.347 225.052 33.7203 225.804 32.467C226.556 31.1823 226.932 29.2083 226.932 26.545C226.932 23.819 226.556 21.8293 225.804 20.576C225.084 19.3227 223.956 18.696 222.42 18.696ZM247.847 13.244C249.633 13.244 251.309 13.5103 252.876 14.043C254.442 14.5757 255.821 15.3277 257.012 16.299L254.286 20.482C252.249 19.1973 250.197 18.555 248.129 18.555C247.157 18.555 246.405 18.7273 245.873 19.072C245.371 19.3853 245.121 19.8397 245.121 20.435C245.121 20.905 245.23 21.2967 245.45 21.61C245.7 21.892 246.186 22.1897 246.907 22.503C247.627 22.8163 248.74 23.1923 250.244 23.631C252.844 24.383 254.771 25.37 256.025 26.592C257.309 27.7827 257.952 29.4433 257.952 31.574C257.952 33.266 257.466 34.7387 256.495 35.992C255.523 37.214 254.192 38.154 252.5 38.812C250.808 39.47 248.928 39.799 246.86 39.799C244.76 39.799 242.802 39.47 240.985 38.812C239.199 38.154 237.679 37.2453 236.426 36.086L240.045 32.044C242.144 33.6733 244.353 34.488 246.672 34.488C247.8 34.488 248.677 34.2843 249.304 33.877C249.962 33.4697 250.291 32.89 250.291 32.138C250.291 31.5427 250.165 31.0727 249.915 30.728C249.664 30.3833 249.178 30.07 248.458 29.788C247.737 29.4747 246.593 29.0987 245.027 28.66C242.551 27.9393 240.703 26.9367 239.481 25.652C238.259 24.3673 237.648 22.7693 237.648 20.858C237.648 19.4167 238.055 18.132 238.87 17.004C239.716 15.8447 240.906 14.936 242.442 14.278C244.008 13.5887 245.81 13.244 247.847 13.244ZM276.394 13.244C278.556 13.244 280.248 13.902 281.47 15.218C282.692 16.534 283.303 18.3827 283.303 20.764V39H275.877V22.033C275.877 20.7797 275.674 19.918 275.266 19.448C274.859 18.9467 274.279 18.696 273.527 18.696C272.023 18.696 270.582 19.7613 269.203 21.892V39H261.777V4.126L269.203 3.374V16.722C270.237 15.5627 271.334 14.701 272.493 14.137C273.653 13.5417 274.953 13.244 276.394 13.244ZM296.329 14.043V39H288.903V14.043H296.329ZM292.569 0.882998C293.854 0.882998 294.904 1.29033 295.718 2.105C296.564 2.88833 296.987 3.891 296.987 5.113C296.987 6.335 296.564 7.35333 295.718 8.168C294.904 8.95133 293.854 9.343 292.569 9.343C291.285 9.343 290.235 8.95133 289.42 8.168C288.606 7.35333 288.198 6.335 288.198 5.113C288.198 3.891 288.606 2.88833 289.42 2.105C290.235 1.29033 291.285 0.882998 292.569 0.882998ZM319.746 14.043V19.26L308.466 33.36H319.981L319.323 39H299.865V33.736L311.192 19.636H300.852V14.043H319.746ZM342.886 31.762C342.886 32.702 343.011 33.3913 343.262 33.83C343.544 34.2687 343.982 34.5977 344.578 34.817L343.027 39.658C341.491 39.5327 340.238 39.2037 339.267 38.671C338.295 38.107 337.543 37.2297 337.011 36.039C335.381 38.5457 332.875 39.799 329.491 39.799C327.015 39.799 325.041 39.0783 323.569 37.637C322.096 36.1957 321.36 34.3157 321.36 31.997C321.36 29.271 322.362 27.1873 324.368 25.746C326.373 24.3047 329.271 23.584 333.063 23.584H335.601V22.503C335.601 21.0303 335.287 20.0277 334.661 19.495C334.034 18.931 332.937 18.649 331.371 18.649C330.556 18.649 329.569 18.7743 328.41 19.025C327.25 19.2443 326.06 19.5577 324.838 19.965L323.146 15.077C324.712 14.4817 326.31 14.0273 327.94 13.714C329.6 13.4007 331.136 13.244 332.546 13.244C336.118 13.244 338.734 13.9803 340.395 15.453C342.055 16.9257 342.886 19.1347 342.886 22.08V31.762ZM331.653 34.488C333.345 34.488 334.661 33.689 335.601 32.091V27.673H333.768C332.076 27.673 330.807 27.9707 329.961 28.566C329.146 29.1613 328.739 30.0857 328.739 31.339C328.739 32.3417 328.989 33.125 329.491 33.689C330.023 34.2217 330.744 34.488 331.653 34.488ZM380.625 14.043L375.455 39H366.572L363.235 20.67L359.945 39H351.156L345.845 14.043H353.365L355.95 33.454L359.851 14.043H367.089L370.52 33.454L373.528 14.043H380.625ZM402.967 31.762C402.967 32.702 403.092 33.3913 403.343 33.83C403.625 34.2687 404.063 34.5977 404.659 34.817L403.108 39.658C401.572 39.5327 400.319 39.2037 399.348 38.671C398.376 38.107 397.624 37.2297 397.092 36.039C395.462 38.5457 392.956 39.799 389.572 39.799C387.096 39.799 385.122 39.0783 383.65 37.637C382.177 36.1957 381.441 34.3157 381.441 31.997C381.441 29.271 382.443 27.1873 384.449 25.746C386.454 24.3047 389.352 23.584 393.144 23.584H395.682V22.503C395.682 21.0303 395.368 20.0277 394.742 19.495C394.115 18.931 393.018 18.649 391.452 18.649C390.637 18.649 389.65 18.7743 388.491 19.025C387.331 19.2443 386.141 19.5577 384.919 19.965L383.227 15.077C384.793 14.4817 386.391 14.0273 388.021 13.714C389.681 13.4007 391.217 13.244 392.627 13.244C396.199 13.244 398.815 13.9803 400.476 15.453C402.136 16.9257 402.967 19.1347 402.967 22.08V31.762ZM391.734 34.488C393.426 34.488 394.742 33.689 395.682 32.091V27.673H393.849C392.157 27.673 390.888 27.9707 390.042 28.566C389.227 29.1613 388.82 30.0857 388.82 31.339C388.82 32.3417 389.07 33.125 389.572 33.689C390.104 34.2217 390.825 34.488 391.734 34.488Z" fill="black"/>
</svg>
